<svg id="e46c3e34-bd78-4462-a85c-3e6b74154a8b" data-name="Livello 1" xmlns="http://www.w3.org/2000/svg" xmlns:xlink="http://www.w3.org/1999/xlink" viewBox="0 0 385.97709 71.30566"><defs><linearGradient id="86e2b8f9-2251-4bb4-bc16-55476009d158" x1="13.72382" y1="69.1358" x2="13.72382" y2="48.1507" gradientUnits="userSpaceOnUse"><stop offset="0" stop-color="#ffffff"/><stop offset="0.25576" stop-color="#ffffff"/><stop offset="0.50532" stop-color="#ffffff"/><stop offset="0.75235" stop-color="#ffffff"/><stop offset="0.99661" stop-color="#ffffff"/><stop offset="1" stop-color="#ffffff"/></linearGradient><linearGradient id="6ca4536a-5cdd-491e-8ebe-b6157c3a7848" x1="12.93728" y1="75.91286" x2="9.77178" y2="22.73253" xlink:href="#86e2b8f9-2251-4bb4-bc16-55476009d158"/><linearGradient id="f067d6b0-accd-40c3-bac2-61e50bde112f" x1="37.06672" y1="69.27851" x2="37.06672" y2="43.82507" xlink:href="#86e2b8f9-2251-4bb4-bc16-55476009d158"/></defs><title>privacar</title><path d="M110.99023,66.71973l-1.37695,4.16992h-1.77l4.50391-13.25684h2.06543l4.52392,13.25684h-1.8291l-1.4165-4.16992Zm4.34668-1.33692-1.29785-3.8164c-.29541-.86524-.4917-1.65137-.68847-2.41895H113.311c-.19678.78711-.41309,1.59277-.66846,2.39942l-1.29834,3.83593Z" transform="translate(-4.17389 -5.26545)" style="fill:#ffffff"/><path d="M128.78809,61.37012c-.03955.68847-.07862,1.45508-.07862,2.61621V69.5127c0,2.18359-.4331,3.5205-1.35742,4.34668A5.04659,5.04659,0,0,1,123.89062,75a6.15088,6.15088,0,0,1-3.167-.78613l.43311-1.31836a5.366,5.366,0,0,0,2.793.748c1.77,0,3.06787-.9248,3.06787-3.32421v-1.0625h-.03906a3.39737,3.39737,0,0,1-3.02881,1.59375c-2.36035,0-4.05176-2.00684-4.05176-4.64161,0-3.22656,2.10449-5.05566,4.2876-5.05566a3.16628,3.16628,0,0,1,2.96972,1.65234h.03955l.07862-1.43554Zm-1.79,3.75683a2.53215,2.53215,0,0,0-2.51758-2.61621c-1.65186,0-2.832,1.39649-2.832,3.59961,0,1.86817.94385,3.42188,2.8125,3.42188a2.52924,2.52924,0,0,0,2.39941-1.76953,3.0051,3.0051,0,0,0,.1377-.92481Z" transform="translate(-4.17389 -5.26545)" style="fill:#ffffff"/><path d="M132.54248,66.44434a3.05,3.05,0,0,0,3.26514,3.30468,6.259,6.259,0,0,0,2.63574-.49218l.29492,1.23925a7.71163,7.71163,0,0,1-3.1665.58985c-2.93067,0-4.68116-1.92676-4.68116-4.79883,0-2.87109,1.69141-5.13379,4.46485-5.13379,3.10742,0,3.93359,2.73438,3.93359,4.48438a6.54535,6.54535,0,0,1-.05908.80664Zm5.07471-1.23926c.01953-1.10156-.45264-2.8125-2.39942-2.8125-1.75048,0-2.51757,1.61328-2.65527,2.8125Z" transform="translate(-4.17389 -5.26545)" style="fill:#ffffff"/><path d="M141.43115,63.94629c0-.9834-.02-1.78906-.0791-2.57617h1.53418l.09863,1.57324h.03907a3.50208,3.50208,0,0,1,3.147-1.79c1.31787,0,3.36328.78711,3.36328,4.05176v5.68457h-1.73047V65.40234c0-1.53418-.57031-2.8125-2.20312-2.8125a2.4583,2.4583,0,0,0-2.3208,1.76954,2.49371,2.49371,0,0,0-.11817.80664v5.72363h-1.73047Z" transform="translate(-4.17389 -5.26545)" style="fill:#ffffff"/><path d="M151.2627,69.88672l4.30761-5.60547c.41309-.51172.80615-.96387,1.23877-1.47559V62.7666h-5.15283V61.37012h7.25732l-.01953,1.082-4.24853,5.52637c-.39307.53125-.78662,1.00293-1.21924,1.49511v.03907h5.56641v1.377h-7.73Z" transform="translate(-4.17389 -5.26545)" style="fill:#ffffff"/><path d="M162.68848,58.69531a1.07207,1.07207,0,0,1-2.144,0,1.05471,1.05471,0,0,1,1.082-1.082A1.02724,1.02724,0,0,1,162.68848,58.69531Zm-1.92725,12.19434V61.37012h1.73047v9.51953Z" transform="translate(-4.17389 -5.26545)" style="fill:#ffffff"/><path d="M170.63379,70.88965l-.1377-1.2002H170.437a3.544,3.544,0,0,1-2.91113,1.417,2.71229,2.71229,0,0,1-2.91065-2.73438c0-2.30078,2.04541-3.55957,5.72364-3.54v-.19726a1.96214,1.96214,0,0,0-2.16358-2.20215,4.736,4.736,0,0,0-2.47851.708l-.39307-1.1416a5.91252,5.91252,0,0,1,3.12695-.8457c2.91114,0,3.61914,1.9873,3.61914,3.89453V68.6084a13.43782,13.43782,0,0,0,.15723,2.28125Zm-.25586-4.8584c-1.88818-.03906-4.03174.29492-4.03174,2.14453a1.53083,1.53083,0,0,0,1.63233,1.65137,2.36788,2.36788,0,0,0,2.30127-1.59277,1.80435,1.80435,0,0,0,.09814-.55079Z" transform="translate(-4.17389 -5.26545)" style="fill:#ffffff"/><path d="M187.231,56.9248V68.43066c0,.84571.01953,1.80957.07861,2.459h-1.55371l-.07861-1.65235h-.03955a3.52053,3.52053,0,0,1-3.24512,1.86915c-2.30127,0-4.07129-1.94727-4.07129-4.83887-.02-3.167,1.94726-5.11426,4.26807-5.11426a3.1819,3.1819,0,0,1,2.87158,1.45606H185.5V56.9248ZM185.5,65.24512a3.05781,3.05781,0,0,0-.07861-.72852,2.54568,2.54568,0,0,0-2.49756-2.00586c-1.79,0-2.85205,1.57324-2.85205,3.67774,0,1.92773.94384,3.52148,2.8125,3.52148a2.60193,2.60193,0,0,0,2.53711-2.06543,3.00969,3.00969,0,0,0,.07861-.74805Z" transform="translate(-4.17389 -5.26545)" style="fill:#ffffff"/><path d="M192.02832,58.69531a1.07182,1.07182,0,0,1-2.14355,0,1.05442,1.05442,0,0,1,1.082-1.082A1.02712,1.02712,0,0,1,192.02832,58.69531Zm-1.92676,12.19434V61.37012H191.832v9.51953Z" transform="translate(-4.17389 -5.26545)" style="fill:#ffffff"/><path d="M199.53906,61.37012l1.86914,5.34961a24.6663,24.6663,0,0,1,.76758,2.43945h.0586c.21679-.78711.49218-1.57422.80664-2.43945l1.84863-5.34961h1.80957l-3.73731,9.51953h-1.65234l-3.61816-9.51953Z" transform="translate(-4.17389 -5.26545)" style="fill:#ffffff"/><path d="M209.09668,66.44434a3.0501,3.0501,0,0,0,3.26465,3.30468,6.26412,6.26412,0,0,0,2.63672-.49218l.29492,1.23925a7.71443,7.71443,0,0,1-3.167.58985c-2.93067,0-4.68067-1.92676-4.68067-4.79883,0-2.87109,1.69141-5.13379,4.46485-5.13379,3.10742,0,3.93359,2.73438,3.93359,4.48438a6.52468,6.52468,0,0,1-.05957.80664Zm5.0752-1.23926c.01953-1.10156-.45313-2.8125-2.4004-2.8125a2.86758,2.86758,0,0,0-2.65429,2.8125Z" transform="translate(-4.17389 -5.26545)" style="fill:#ffffff"/><path d="M217.98438,63.94629c0-.9834-.01954-1.78906-.07813-2.57617h1.5332l.09961,1.57324h.03906a3.50067,3.50067,0,0,1,3.14649-1.79c1.31836,0,3.36328.78711,3.36328,4.05176v5.68457h-1.73047V65.40234c0-1.53418-.57031-2.8125-2.20312-2.8125a2.54142,2.54142,0,0,0-2.43946,2.57618v5.72363h-1.73046Z" transform="translate(-4.17389 -5.26545)" style="fill:#ffffff"/><path d="M237.12012,56.9248V68.43066c0,.84571.01953,1.80957.0791,2.459h-1.55469l-.07812-1.65235h-.03907a3.52152,3.52152,0,0,1-3.24609,1.86915c-2.30078,0-4.07031-1.94727-4.07031-4.83887-.02051-3.167,1.94726-5.11426,4.26758-5.11426a3.18041,3.18041,0,0,1,2.87109,1.45606h.03906V56.9248Zm-1.73145,8.32032a3.08255,3.08255,0,0,0-.07812-.72852,2.54582,2.54582,0,0,0-2.49805-2.00586c-1.78906,0-2.85156,1.57324-2.85156,3.67774,0,1.92773.94336,3.52148,2.8125,3.52148a2.60233,2.60233,0,0,0,2.53711-2.06543,3.03362,3.03362,0,0,0,.07812-.74805Z" transform="translate(-4.17389 -5.26545)" style="fill:#ffffff"/><path d="M241.917,58.69531a1.07182,1.07182,0,0,1-2.14355,0,1.05443,1.05443,0,0,1,1.082-1.082A1.02711,1.02711,0,0,1,241.917,58.69531Zm-1.92676,12.19434V61.37012h1.73047v9.51953Z" transform="translate(-4.17389 -5.26545)" style="fill:#ffffff"/><path d="M246.67578,58.63574v2.73438h2.47852V62.6875h-2.47852v5.13379c0,1.18066.334,1.84863,1.29883,1.84863a3.81833,3.81833,0,0,0,1.00195-.11816l.0791,1.29883a4.23692,4.23692,0,0,1-1.53418.23535,2.39533,2.39533,0,0,1-1.86816-.72754,3.52742,3.52742,0,0,1-.66894-2.47852V62.6875h-1.47461V61.37012h1.47461V59.08887Z" transform="translate(-4.17389 -5.26545)" style="fill:#ffffff"/><path d="M256.37109,70.88965l-.13769-1.2002h-.0586a3.54615,3.54615,0,0,1-2.91113,1.417,2.71244,2.71244,0,0,1-2.91113-2.73438c0-2.30078,2.0459-3.55957,5.72363-3.54v-.19726a1.96253,1.96253,0,0,0-2.16406-2.20215,4.73733,4.73733,0,0,0-2.47852.708L251.041,61.999a5.91249,5.91249,0,0,1,3.12695-.8457c2.91113,0,3.61914,1.9873,3.61914,3.89453V68.6084a13.38648,13.38648,0,0,0,.15723,2.28125Zm-.25586-4.8584c-1.88769-.03906-4.03222.29492-4.03222,2.14453a1.53142,1.53142,0,0,0,1.63281,1.65137,2.3672,2.3672,0,0,0,2.30078-1.59277,1.7905,1.7905,0,0,0,.09863-.55079Z" transform="translate(-4.17389 -5.26545)" style="fill:#ffffff"/><path d="M270.01855,70.88965l-.13769-1.2002h-.05859a3.54617,3.54617,0,0,1-2.91114,1.417A2.71244,2.71244,0,0,1,264,68.37207c0-2.30078,2.0459-3.55957,5.72363-3.54v-.19726a1.96253,1.96253,0,0,0-2.16406-2.20215,4.73121,4.73121,0,0,0-2.47754.708l-.39355-1.1416a5.91249,5.91249,0,0,1,3.12695-.8457c2.91113,0,3.61914,1.9873,3.61914,3.89453V68.6084a13.38648,13.38648,0,0,0,.15723,2.28125Zm-.25585-4.8584c-1.8877-.03906-4.03223.29492-4.03223,2.14453a1.53143,1.53143,0,0,0,1.63281,1.65137,2.3672,2.3672,0,0,0,2.30078-1.59277,1.79052,1.79052,0,0,0,.09864-.55079Z" transform="translate(-4.17389 -5.26545)" style="fill:#ffffff"/><path d="M282.19141,68.293c0,.9834.01953,1.84961.0791,2.59668h-1.53418l-.09863-1.55371h-.03907a3.58358,3.58358,0,0,1-3.14746,1.77051c-1.49414,0-3.28418-.82618-3.28418-4.16993v-5.5664h1.73047V66.6416c0,1.80957.55078,3.02832,2.124,3.02832a2.50228,2.50228,0,0,0,2.28223-1.57324,2.54682,2.54682,0,0,0,.15723-.88477V61.37012h1.73047Z" transform="translate(-4.17389 -5.26545)" style="fill:#ffffff"/><path d="M287.14551,58.63574v2.73438H289.624V62.6875h-2.47851v5.13379c0,1.18066.335,1.84863,1.29785,1.84863a3.82977,3.82977,0,0,0,1.00391-.11816l.07812,1.29883a4.23692,4.23692,0,0,1-1.53418.23535,2.39532,2.39532,0,0,1-1.86816-.72754,3.52259,3.52259,0,0,1-.66895-2.47852V62.6875h-1.47461V61.37012h1.47461V59.08887Z" transform="translate(-4.17389 -5.26545)" style="fill:#ffffff"/><path d="M300.06641,66.05078a4.65309,4.65309,0,0,1-4.74024,5.05567c-2.57617,0-4.56347-1.88868-4.56347-4.89747,0-3.18652,2.085-5.05566,4.7207-5.05566C298.21777,61.15332,300.06641,63.14062,300.06641,66.05078Zm-7.55274.09863c0,2.085,1.19922,3.65821,2.8916,3.65821,1.65137,0,2.89063-1.55371,2.89063-3.69727,0-1.61328-.80664-3.6582-2.85156-3.6582C293.39844,62.45215,292.51367,64.33984,292.51367,66.14941Z" transform="translate(-4.17389 -5.26545)" style="fill:#ffffff"/><path d="M308.501,58.63574v2.73438h2.47851V62.6875H308.501v5.13379c0,1.18066.335,1.84863,1.29785,1.84863a3.82962,3.82962,0,0,0,1.0039-.11816l.07813,1.29883a4.237,4.237,0,0,1-1.53418.23535,2.39532,2.39532,0,0,1-1.86816-.72754,3.52259,3.52259,0,0,1-.66895-2.47852V62.6875H305.335V61.37012h1.47461V59.08887Z" transform="translate(-4.17389 -5.26545)" style="fill:#ffffff"/><path d="M312.9248,64.33984c0-1.12109-.01953-2.085-.07812-2.96972h1.51465l.05859,1.86816h.0791a2.85567,2.85567,0,0,1,2.63477-2.085,1.88271,1.88271,0,0,1,.49219.05957v1.63184a2.61784,2.61784,0,0,0-.58985-.0586,2.42871,2.42871,0,0,0-2.32129,2.22266,4.91263,4.91263,0,0,0-.07812.80664v5.07422H312.9248Z" transform="translate(-4.17389 -5.26545)" style="fill:#ffffff"/><path d="M324.5293,70.88965l-.1377-1.2002H324.333a3.54616,3.54616,0,0,1-2.91113,1.417,2.71244,2.71244,0,0,1-2.91114-2.73438c0-2.30078,2.0459-3.55957,5.72364-3.54v-.19726a1.96253,1.96253,0,0,0-2.16407-2.20215,4.73124,4.73124,0,0,0-2.47754.708l-.39355-1.1416a5.91249,5.91249,0,0,1,3.12695-.8457c2.91113,0,3.61914,1.9873,3.61914,3.89453V68.6084a13.38751,13.38751,0,0,0,.15723,2.28125Zm-.25586-4.8584c-1.8877-.03906-4.03223.29492-4.03223,2.14453a1.53143,1.53143,0,0,0,1.63281,1.65137,2.3672,2.3672,0,0,0,2.30078-1.59277,1.79022,1.79022,0,0,0,.09864-.55079Z" transform="translate(-4.17389 -5.26545)" style="fill:#ffffff"/><path d="M332.9043,64.47754c0-1.21973-.03907-2.20313-.07813-3.10742h1.55371l.07813,1.63281h.04a3.7415,3.7415,0,0,1,3.38281-1.84961c2.30078,0,4.03223,1.94727,4.03223,4.83887,0,3.42187-2.085,5.11426-4.32715,5.11426a3.338,3.338,0,0,1-2.93067-1.49512h-.04v5.17285H332.9043Zm1.71093,2.53711a3.91212,3.91212,0,0,0,.07911.708A2.67086,2.67086,0,0,0,337.291,69.749c1.8291,0,2.89062-1.49511,2.89062-3.67773,0-1.9082-1.00293-3.541-2.832-3.541a2.76294,2.76294,0,0,0-2.61621,2.14453,2.81852,2.81852,0,0,0-.11817.708Z" transform="translate(-4.17389 -5.26545)" style="fill:#ffffff"/><path d="M344.09375,64.33984c0-1.12109-.01953-2.085-.07813-2.96972h1.51465l.0586,1.86816h.0791a2.85566,2.85566,0,0,1,2.63476-2.085,1.8826,1.8826,0,0,1,.49219.05957v1.63184a2.61774,2.61774,0,0,0-.58984-.0586,2.42871,2.42871,0,0,0-2.32129,2.22266,4.9066,4.9066,0,0,0-.0791.80664v5.07422h-1.71094Z" transform="translate(-4.17389 -5.26545)" style="fill:#ffffff"/><path d="M352.53027,58.69531a1.07182,1.07182,0,0,1-2.14355,0,1.05419,1.05419,0,0,1,1.081-1.082A1.02735,1.02735,0,0,1,352.53027,58.69531Zm-1.92773,12.19434V61.37012H352.334v9.51953Z" transform="translate(-4.17389 -5.26545)" style="fill:#ffffff"/><path d="M355.87305,61.37012l1.86816,5.34961a24.41347,24.41347,0,0,1,.76758,2.43945h.05859c.2168-.78711.49219-1.57422.80664-2.43945l1.84864-5.34961h1.80957l-3.73633,9.51953h-1.65235l-3.61914-9.51953Z" transform="translate(-4.17389 -5.26545)" style="fill:#ffffff"/><path d="M369.85547,70.88965l-.1377-1.2002h-.05859a3.54616,3.54616,0,0,1-2.91113,1.417,2.71244,2.71244,0,0,1-2.91114-2.73438c0-2.30078,2.0459-3.55957,5.72364-3.54v-.19726a1.96253,1.96253,0,0,0-2.16407-2.20215,4.73117,4.73117,0,0,0-2.47753.708l-.39356-1.1416a5.91249,5.91249,0,0,1,3.12695-.8457c2.91114,0,3.61914,1.9873,3.61914,3.89453V68.6084a13.38751,13.38751,0,0,0,.15723,2.28125Zm-.25586-4.8584c-1.8877-.03906-4.03223.29492-4.03223,2.14453a1.53143,1.53143,0,0,0,1.63282,1.65137,2.36721,2.36721,0,0,0,2.30078-1.59277,1.7905,1.7905,0,0,0,.09863-.55079Z" transform="translate(-4.17389 -5.26545)" style="fill:#ffffff"/><path d="M376.06836,58.63574v2.73438h2.47852V62.6875h-2.47852v5.13379c0,1.18066.335,1.84863,1.29785,1.84863a3.82971,3.82971,0,0,0,1.00391-.11816l.07812,1.29883a4.23692,4.23692,0,0,1-1.53418.23535,2.39532,2.39532,0,0,1-1.86816-.72754,3.52259,3.52259,0,0,1-.66895-2.47852V62.6875h-1.47461V61.37012H374.377V59.08887Z" transform="translate(-4.17389 -5.26545)" style="fill:#ffffff"/><path d="M382.41992,58.69531a1.07182,1.07182,0,0,1-2.14355,0,1.05419,1.05419,0,0,1,1.08105-1.082A1.02735,1.02735,0,0,1,382.41992,58.69531Zm-1.92773,12.19434V61.37012h1.73144v9.51953Z" transform="translate(-4.17389 -5.26545)" style="fill:#ffffff"/><path d="M309.96176,50.307H287.188a9.14383,9.14383,0,0,1-9.14368-9.14373v-6.8414a9.14379,9.14379,0,0,1,9.14368-9.14368h22.77374v6.41265h-22.005a3.67509,3.67509,0,0,0-3.6754,3.6754v5.37664a3.67527,3.67527,0,0,0,3.6754,3.67541h22.005Z" transform="translate(-4.17389 -5.26545)" style="fill:#ffffff"/><path d="M350.82028,50.6085l-.00041-16.29609a9.14429,9.14429,0,0,1,9.14414-9.14414l22.84012.00023v6.19836H360.90635a3.67572,3.67572,0,0,0-3.67585,3.67586L357.231,50.6085Z" transform="translate(-4.17389 -5.26545)" style="fill:#ffffff"/><path d="M320.73881,42.53728a1.47055,1.47055,0,0,1,1.4707-1.47025h17.861v3.22708h-17.861a1.47058,1.47058,0,0,1-1.4707-1.47026Zm25.72481,7.95825h-22.917c-5.05028,0-9.14413-3.53786-9.14413-7.902s4.09385-7.90225,9.14413-7.90225h16.60526a3.67642,3.67642,0,0,0-3.653-3.26313h-22.143V25.21729h22.87357a9.14388,9.14388,0,0,1,9.14368,9.14413v.32987Z" transform="translate(-4.17389 -5.26545)" style="fill:#ffffff;fill-rule:evenodd"/><path d="M386.37494,20.26017h.39026c.53584,0,.79909.16352.79909.54461,0,.36326-.24525.51755-.75336.51755h-.436Zm-.8892-.5626v3.65785h.8892V21.85789h.436l.69885,1.49753h.98943l-.81709-1.63377a.97758.97758,0,0,0,.79905-.97115c0-.69885-.51775-1.05293-1.56123-1.05293Zm1.37047-.86237a2.68748,2.68748,0,0,1,1.96958.82613,2.71728,2.71728,0,0,1,.78059,1.97881,2.64336,2.64336,0,0,1-.80787,1.8968,2.8347,2.8347,0,0,1-1.95152.80786,2.73615,2.73615,0,0,1-1.95113-.83509,2.68979,2.68979,0,0,1-.78985-1.92408,2.79554,2.79554,0,0,1,.83513-1.9698A2.63052,2.63052,0,0,1,386.85621,18.8352Zm-.00922-.54433a3.19252,3.19252,0,0,0-2.80427,1.58826,3.31892,3.31892,0,0,0-.48127,1.7155A3.31594,3.31594,0,0,0,386.847,24.8894a3.34552,3.34552,0,0,0,2.33306-.96215,3.2005,3.2005,0,0,0,.97094-2.33262,3.2842,3.2842,0,0,0-3.304-3.30376Z" transform="translate(-4.17389 -5.26545)" style="fill:#ffffff;fill-rule:evenodd"/><rect x="188.86567" y="6.5466" width="6.46846" height="9.38083" style="fill:#ffffff"/><path d="M156.50039,50.6085l-.00045-16.29609a9.14427,9.14427,0,0,1,9.14413-9.14414l22.8399.00023v6.19836H166.586a3.67531,3.67531,0,0,0-3.67541,3.67586V50.6085Zm91.22335-8.07122A1.47045,1.47045,0,0,1,249.194,41.067h17.86145v3.22708H249.194a1.47048,1.47048,0,0,1-1.47025-1.47026Zm25.72477,7.95825h-22.917c-5.05029,0-9.14419-3.53786-9.14419-7.902s4.0939-7.90225,9.14419-7.90225h16.6048a3.676,3.676,0,0,0-3.65254-3.26313h-22.143V25.21729h22.87352a9.1439,9.1439,0,0,1,9.14373,9.14413v.32987ZM113.28769,25.10589h28.45653a3.6753,3.6753,0,0,1,3.67563,3.67563v2.30273a3.67542,3.67542,0,0,1-3.67563,3.6754H113.28769Zm-5.33114-6.41022,5.33114-.002,29.18684.002a9.14388,9.14388,0,0,1,9.1439,9.14391v4.122a9.14393,9.14393,0,0,1-9.1439,9.14413H113.28769V50.681h-5.33114V18.69567Zm94.15463,6.414L217.16491,50.6085h6.84972l15.05372-25.49887h-7.28356L220.61612,43.97585,209.4475,25.10963Zm-9.07162-.07256H199.508V50.681h-6.46846Z" transform="translate(-4.17389 -5.26545)" style="fill:#ffffff;fill-rule:evenodd"/><line x1="82.27829" y1="17.56788" x2="82.27829" y2="53.94761" style="fill:none;stroke:#ffffff;stroke-miterlimit:10;stroke-width:0.808531299210656px"/><path d="M4.17389,26.65947a8.03453,8.03453,0,0,1,3.62156-6.27271L32.49242,6.128a8.03453,8.03453,0,0,1,7.24311,0l24.697,14.25881a8.03453,8.03453,0,0,1,3.62156,6.27271V55.17709a8.03452,8.03452,0,0,1-3.62156,6.27271l-24.697,14.25881a8.03453,8.03453,0,0,1-7.24311,0L7.79545,61.4498a8.03452,8.03452,0,0,1-3.62156-6.27271Z" transform="translate(-4.17389 -5.26545)" style="fill:#ffffff"/><path d="M53.45507,37.79212V34.79406a3.03363,3.03363,0,0,0-2.99629-2.9963H23.48692v8.99065H50.45878A3.005,3.005,0,0,0,53.45507,37.79212Z" transform="translate(-4.17389 -5.26545)" style="fill:none"/><path d="M49.67179,46.79668s.04569-.00548.1105-.014H23.48692Z" transform="translate(-4.17389 -5.26545)" style="fill:none"/><polygon points="13.319 50.508 8.135 58.79 12.405 61.256 19.313 50.508 13.319 50.508" style="fill:url(#86e2b8f9-2251-4bb4-bc16-55476009d158)"/><path d="M17.49257,25.80346,4.1739,48.90053v6.27654A8.0345,8.0345,0,0,0,7.79546,61.4498l4.51305,2.60561,5.18406-8.282Z" transform="translate(-4.17389 -5.26545)" style="fill:url(#6ca4536a-5cdd-491e-8ebe-b6157c3a7848)"/><path d="M57.47547,43.38821a8.98879,8.98879,0,0,1-7.01669,3.39451h-.67649c-.06481.00848-.1105.014-.1105.014l-26.18487-.014v8.99065l-6.90776,10.7477,15.91328,9.18754a7.10624,7.10624,0,0,0,3.05648.83141L57.55428,43.31783C57.52888,43.34256,57.5011,43.36381,57.47547,43.38821Z" transform="translate(-4.17389 -5.26545)" style="fill:url(#f067d6b0-accd-40c3-bac2-61e50bde112f)"/><path d="M23.48692,55.77337V46.78272H49.78229a14.95981,14.95981,0,0,0,7.69318-3.39451,8.925,8.925,0,0,0,1.974-5.59609V34.79406a9.01681,9.01681,0,0,0-8.99065-8.9906H17.49257V55.77337Zm0-23.97561H50.45878a3.03363,3.03363,0,0,1,2.99629,2.9963v2.99806a3.005,3.005,0,0,1-2.99629,2.99629H23.48692Z" transform="translate(-4.17389 -5.26545)" style="fill:#fff"/><path d="M50.45878,46.78272a8.98879,8.98879,0,0,0,7.01669-3.39451,14.95981,14.95981,0,0,1-7.69318,3.39451Z" transform="translate(-4.17389 -5.26545)" style="fill:#fff"/></svg>